<svg xmlns="http://www.w3.org/2000/svg" viewBox="0 0 1240 235" role="img" aria-label="Fox News">
<defs>
  <g id="k"><path fill="#fff" d="M1235,717h-2.3c-13.7-33.6-29.2-66.4-46.5-98.3h15.2c12,23,23.2,46.3,33.6,70V717z M0,137.2
		c60.8-20.4,123.3-34.8,186.9-43.1L205,0h146.7l-32.9,85.4c39.5-0.1,78.9,2.2,118.1,6.9L482.6,0h161.2L567,116.6
		c101.9,26.4,198.9,68.8,287.3,125.7c17.6,11.3,34.7,23.2,51.3,35.5h-23.3C784.6,209,675.1,158.4,559.2,128.7l-93.9,145.7h-67.4
		v99.2L231.6,644.9h-53.2v90.7L8,1001.7H2.6l428.1-896.6c-38.7-4.5-77.7-6.6-116.6-6.3L1.2,1001.7H0 M0,985l183.9-876.7
		c-62.3,8.7-123.6,23.5-183.1,44H0 M8,1001.7L8,1001.7z M2.5,1001.7L2.5,1001.7z M637.4,0L637.4,0z"/></g>
  <g id="t"><path fill="#fff" d="M507.7,503.3h90.2v-84.3h-90.2v-40.2h109.8l-6-84.5H415.9v309.4h91.8V503.3z M889.3,602.8H988
		l45-75.9l46.1,76h101l-97.4-160.3l87.7-147.8h-100l-37.7,64.2l-39.1-64.4H891.9l90.3,148.7L889.3,602.8z M774.5,606.2
		c87.3,1.2,159.1-68.4,160.6-155.7c-3.7-88.8-78.6-157.8-167.5-154.2c-83.7,3.5-150.7,70.5-154.2,154.2
		c1.4,87.4,73.4,157.1,160.8,155.7H774.5z M746.1,382.6c0.1-15.3,12.2-27.7,27.4-28.4c15.7,0.3,28.4,12.8,29,28.4v131.3
		c-1.1,15.6-14.6,27.3-30.2,26.2c-14.1-1-25.2-12.2-26.2-26.2V382.6z M528.6,834.7H622v-61.9h-93.4v-42.1h113.8v-67H456.5V953h187.3
		v-69.6H528.6V834.7z M930.6,663.7l-35.8,165.6l-35-165.6h-61.8L764.7,831L730,663.7h-73.7L723.2,953h67.2l32.9-165.8L857.2,953H923
		l67.2-289.3L930.6,663.7z M1174.6,794.4c-19.2-17.7-41.2-22.4-65.9-29.4c-29.2-8.2-45.3-9.1-45.3-26.1c1.2-12.6,12.4-21.8,25-20.6
		c0.1,0,0.2,0,0.2,0c18.6-1.5,35.6,10.8,39.9,29l63.1-21c-11.7-44-52.5-73.9-98-71.9c-65.9,0-106.2,40.5-106.2,95
		c0,47.1,27.4,70.3,82.3,86.7c32.8,9.9,50.2,9.1,50.2,30.2c0,11.1-10.3,19.8-27.4,19.8c-22.6,2.6-43.2-12.9-47.1-35.3L976.2,866
		c11.8,54.9,52.7,87.5,115.4,87.5c31,0.8,60.9-11.5,82.3-33.9c15.8-17.4,24.5-40.1,24.3-63.7c1.3-23-7.4-45.4-23.7-61.6H1174.6z
		 M366.7,808.9L280.5,665h-83.6v288.2h73.4V784.8l98.4,168h69.6V664.6h-71.4L366.7,808.9z"/></g>
</defs>
<rect width="1240" height="235" fill="#003366"/>
<svg x="0" y="0" width="200" height="235" viewBox="0 0 440 780" preserveAspectRatio="xMinYMin slice"><use href="#k"/></svg>
<svg x="215" y="30" width="424" height="175" viewBox="416 293 764 315" preserveAspectRatio="xMidYMid meet"><use href="#t"/></svg>
<svg x="668" y="30" width="556" height="175" viewBox="197 652 1003 302" preserveAspectRatio="xMidYMid meet"><use href="#t"/></svg>
</svg>
